<?xml version="1.0" encoding="utf-8"?>
<!-- Generated by IcoMoon.io -->
<!DOCTYPE svg PUBLIC "-//W3C//DTD SVG 1.1//EN" "http://www.w3.org/Graphics/SVG/1.1/DTD/svg11.dtd">
<svg version="1.1" xmlns="http://www.w3.org/2000/svg" xmlns:xlink="http://www.w3.org/1999/xlink" width="128" height="128" viewBox="0 0 128 128">
<path fill="#e6e6e6" d="M123.674 105.78c-0.512-0.884-2.152-1.156-4.924-0.808-5.1 0.66-8.804-1.004-11.112-5.004-1.748-3.024-2.2-6.064-1.356-9.12s3.344-7.416 7.496-13.088l2.596-3.616c7.712-10.652 9.292-19.916 4.744-27.8-4.628-8.024-18-7.348-27.612-3.224-7.776-16.036-24.16-27.12-43.172-27.12-26.512 0-48 21.492-48 48s21.488 48 48 48c26.508 0 48-21.492 48-48 0-5.876-1.108-11.484-3.040-16.684 3.244-1.164 7.124-2.008 10.784-2.144 4.808-0.176 9.16 0.832 10.888 3.824 3.852 6.676 1.992 14.564-5.58 23.652l-1.552 1.864c-8.856 10.628-10.972 19.936-6.364 27.928 1.864 3.224 4.828 5.524 8.9 6.908 4.072 1.38 7.516 1.248 10.34-0.384 1.4-0.808 1.724-1.872 0.964-3.184zM28.334 74.248c-5.524 0-10-4.476-10-10 0-5.52 4.476-10 10-10s10 4.476 10 10c0 5.524-4.476 10-10 10zM50.334 96.248c-5.524 0-10-4.476-10-10s4.476-10 10-10 10 4.476 10 10-4.476 10-10 10zM46.414 64.248c0-2.208 1.796-4 4.004-4s4 1.788 4 4c0 2.212-1.792 4-4 4s-4.004-1.788-4.004-4zM50.334 52.248c-5.524 0-10-4.476-10-10 0-5.52 4.476-10 10-10s10 4.476 10 10c0 5.524-4.476 10-10 10zM72.334 74.248c-5.524 0-10-4.476-10-10 0-5.52 4.476-10 10-10s10 4.476 10 10c0 5.524-4.476 10-10 10z"></path>
</svg>
