<?xml version="1.0" encoding="utf-8"?>
<!-- Generated by IcoMoon.io -->
<!DOCTYPE svg PUBLIC "-//W3C//DTD SVG 1.1//EN" "http://www.w3.org/Graphics/SVG/1.1/DTD/svg11.dtd">
<svg version="1.1" xmlns="http://www.w3.org/2000/svg" xmlns:xlink="http://www.w3.org/1999/xlink" width="64" height="64" viewBox="0 0 64 64">
<path fill="#000" d="M60.67 52.89c-0.256-0.442-1.076-0.578-2.462-0.404-2.55 0.33-4.402-0.502-5.556-2.502-0.874-1.512-1.1-3.032-0.678-4.56s1.672-3.708 3.748-6.544l1.298-1.808c3.856-5.326 4.646-9.958 2.372-13.9-2.314-4.012-9-3.674-13.806-1.612-3.888-8.018-12.080-13.56-21.586-13.56-13.256 0-24 10.746-24 24s10.744 24 24 24c13.254 0 24-10.746 24-24 0-2.938-0.554-5.742-1.52-8.342 1.622-0.582 3.562-1.004 5.392-1.072 2.404-0.088 4.58 0.416 5.444 1.912 1.926 3.338 0.996 7.282-2.79 11.826l-0.776 0.932c-4.428 5.314-5.486 9.968-3.182 13.964 0.932 1.612 2.414 2.762 4.45 3.454 2.036 0.69 3.758 0.624 5.17-0.192 0.7-0.404 0.862-0.936 0.482-1.592zM13 37.124c-2.762 0-5-2.238-5-5 0-2.76 2.238-5 5-5s5 2.238 5 5c0 2.762-2.238 5-5 5zM24 48.124c-2.762 0-5-2.238-5-5s2.238-5 5-5 5 2.238 5 5-2.238 5-5 5zM22.040 32.124c0-1.104 0.898-2 2.002-2s2 0.894 2 2c0 1.106-0.896 2-2 2s-2.002-0.894-2.002-2zM24 26.124c-2.762 0-5-2.238-5-5 0-2.76 2.238-5 5-5s5 2.238 5 5c0 2.762-2.238 5-5 5zM35 37.124c-2.762 0-5-2.238-5-5 0-2.76 2.238-5 5-5s5 2.238 5 5c0 2.762-2.238 5-5 5z"></path>
</svg>
